<mxfile host="app.diagrams.net" modified="2023-05-11T07:03:43.509Z" agent="Mozilla/5.0 (Macintosh; Intel Mac OS X 10_15_7) AppleWebKit/605.1.15 (KHTML, like Gecko) Version/16.0 Safari/605.1.15" version="21.2.9" etag="X5t_DNIB1rHU9hekoFe0" type="github">
  <diagram name="Page-1" id="hffA1Lbq50UZBieA51aM">
    <mxGraphModel>
      <root>
        <mxCell id="0" />
        <mxCell id="1" parent="0" />
      </root>
    </mxGraphModel>
  </diagram>
</mxfile>
